<?xml version="1.0" encoding="UTF-8"?><svg xmlns="http://www.w3.org/2000/svg" xmlns:xlink="http://www.w3.org/1999/xlink" fill-opacity="1" color-rendering="auto" color-interpolation="auto" text-rendering="auto" stroke="black" stroke-linecap="square" width="347" stroke-miterlimit="10" shape-rendering="auto" stroke-opacity="1" fill="black" stroke-dasharray="none" font-weight="normal" stroke-width="1" height="630" font-family="'Dialog'" font-style="normal" stroke-linejoin="miter" font-size="12px" stroke-dashoffset="0" image-rendering="auto">
  <!--Generated by ySVG 2.6-->
  <defs id="genericDefs"/>
  <g>
    <defs id="defs1">
      <linearGradient x1="-167" gradientUnits="userSpaceOnUse" x2="-27" y1="70" y2="110" id="linearGradient1" spreadMethod="reflect">
        <stop stop-opacity="1" stop-color="white" offset="0%"/>
        <stop stop-opacity="1" stop-color="white" offset="100%"/>
      </linearGradient>
      <linearGradient x1="-167" gradientUnits="userSpaceOnUse" x2="-27" y1="0" y2="40" id="linearGradient2" spreadMethod="reflect">
        <stop stop-opacity="1" stop-color="white" offset="0%"/>
        <stop stop-opacity="1" stop-color="white" offset="100%"/>
      </linearGradient>
      <linearGradient x1="-167" gradientUnits="userSpaceOnUse" x2="-27" y1="350" y2="390" id="linearGradient3" spreadMethod="reflect">
        <stop stop-opacity="1" stop-color="white" offset="0%"/>
        <stop stop-opacity="1" stop-color="white" offset="100%"/>
      </linearGradient>
      <linearGradient x1="-167" gradientUnits="userSpaceOnUse" x2="-27" y1="140" y2="180" id="linearGradient4" spreadMethod="reflect">
        <stop stop-opacity="1" stop-color="white" offset="0%"/>
        <stop stop-opacity="1" stop-color="white" offset="100%"/>
      </linearGradient>
      <linearGradient x1="10" gradientUnits="userSpaceOnUse" x2="150" y1="560" y2="600" id="linearGradient5" spreadMethod="reflect">
        <stop stop-opacity="1" stop-color="white" offset="0%"/>
        <stop stop-opacity="1" stop-color="white" offset="100%"/>
      </linearGradient>
      <linearGradient x1="-167" gradientUnits="userSpaceOnUse" x2="-27" y1="210" y2="250" id="linearGradient6" spreadMethod="reflect">
        <stop stop-opacity="1" stop-color="white" offset="0%"/>
        <stop stop-opacity="1" stop-color="white" offset="100%"/>
      </linearGradient>
      <linearGradient x1="-167" gradientUnits="userSpaceOnUse" x2="-27" y1="280" y2="320" id="linearGradient7" spreadMethod="reflect">
        <stop stop-opacity="1" stop-color="white" offset="0%"/>
        <stop stop-opacity="1" stop-color="white" offset="100%"/>
      </linearGradient>
      <linearGradient x1="-167" gradientUnits="userSpaceOnUse" x2="-27" y1="420" y2="460" id="linearGradient8" spreadMethod="reflect">
        <stop stop-opacity="1" stop-color="white" offset="0%"/>
        <stop stop-opacity="1" stop-color="white" offset="100%"/>
      </linearGradient>
      <linearGradient x1="-167" gradientUnits="userSpaceOnUse" x2="-27" y1="490" y2="530" id="linearGradient9" spreadMethod="reflect">
        <stop stop-opacity="1" stop-color="white" offset="0%"/>
        <stop stop-opacity="1" stop-color="white" offset="100%"/>
      </linearGradient>
      <linearGradient x1="10" gradientUnits="userSpaceOnUse" x2="150" y1="280" y2="320" id="linearGradient10" spreadMethod="reflect">
        <stop stop-opacity="1" stop-color="white" offset="0%"/>
        <stop stop-opacity="1" stop-color="white" offset="100%"/>
      </linearGradient>
      <linearGradient x1="10" gradientUnits="userSpaceOnUse" x2="150" y1="70" y2="110" id="linearGradient11" spreadMethod="reflect">
        <stop stop-opacity="1" stop-color="white" offset="0%"/>
        <stop stop-opacity="1" stop-color="white" offset="100%"/>
      </linearGradient>
      <linearGradient x1="10" gradientUnits="userSpaceOnUse" x2="150" y1="140" y2="180" id="linearGradient12" spreadMethod="reflect">
        <stop stop-opacity="1" stop-color="white" offset="0%"/>
        <stop stop-opacity="1" stop-color="white" offset="100%"/>
      </linearGradient>
      <linearGradient x1="10" gradientUnits="userSpaceOnUse" x2="150" y1="210" y2="250" id="linearGradient13" spreadMethod="reflect">
        <stop stop-opacity="1" stop-color="white" offset="0%"/>
        <stop stop-opacity="1" stop-color="white" offset="100%"/>
      </linearGradient>
      <linearGradient x1="10" gradientUnits="userSpaceOnUse" x2="150" y1="350" y2="390" id="linearGradient14" spreadMethod="reflect">
        <stop stop-opacity="1" stop-color="white" offset="0%"/>
        <stop stop-opacity="1" stop-color="white" offset="100%"/>
      </linearGradient>
      <linearGradient x1="10" gradientUnits="userSpaceOnUse" x2="150" y1="420" y2="460" id="linearGradient15" spreadMethod="reflect">
        <stop stop-opacity="1" stop-color="white" offset="0%"/>
        <stop stop-opacity="1" stop-color="white" offset="100%"/>
      </linearGradient>
      <linearGradient x1="10" gradientUnits="userSpaceOnUse" x2="150" y1="490" y2="530" id="linearGradient16" spreadMethod="reflect">
        <stop stop-opacity="1" stop-color="white" offset="0%"/>
        <stop stop-opacity="1" stop-color="white" offset="100%"/>
      </linearGradient>
      <clipPath clipPathUnits="userSpaceOnUse" id="clipPath1">
        <path d="M0 0 L347 0 L347 630 L0 630 L0 0 Z"/>
      </clipPath>
      <clipPath clipPathUnits="userSpaceOnUse" id="clipPath2">
        <path d="M-182 -15 L165 -15 L165 615 L-182 615 L-182 -15 Z"/>
      </clipPath>
    </defs>
    <g fill="white" text-rendering="geometricPrecision" shape-rendering="geometricPrecision" transform="translate(182,15)" stroke="white">
      <rect x="-182" width="347" height="630" y="-15" clip-path="url(#clipPath2)" stroke="none"/>
    </g>
    <g fill="url(#linearGradient1)" text-rendering="geometricPrecision" shape-rendering="geometricPrecision" transform="matrix(1,0,0,1,182,15)" stroke="url(#linearGradient1)">
      <path d="M-167 70 L-27 70 L-27 110 L-167 110 Z" stroke="none" clip-path="url(#clipPath2)"/>
    </g>
    <g text-rendering="geometricPrecision" stroke-miterlimit="1.45" shape-rendering="geometricPrecision" transform="matrix(1,0,0,1,182,15)" stroke-linecap="butt">
      <path fill="none" d="M-167 70 L-27 70 L-27 110 L-167 110 Z" clip-path="url(#clipPath2)"/>
      <text x="-113.3008" xml:space="preserve" y="87.3633" clip-path="url(#clipPath2)" font-family="sans-serif" stroke="none">код = </text>
      <text x="-142.5156" xml:space="preserve" y="102.0645" clip-path="url(#clipPath2)" font-family="sans-serif" stroke="none">коммутатор[код]</text>
    </g>
    <g fill="url(#linearGradient2)" text-rendering="geometricPrecision" shape-rendering="geometricPrecision" transform="matrix(1,0,0,1,182,15)" stroke="url(#linearGradient2)">
      <rect x="-167" y="0" clip-path="url(#clipPath2)" width="140" rx="20" ry="20" height="40" stroke="none"/>
    </g>
    <g text-rendering="geometricPrecision" stroke-miterlimit="1.45" shape-rendering="geometricPrecision" transform="matrix(1,0,0,1,182,15)" stroke-linecap="butt">
      <rect x="-167" y="0" clip-path="url(#clipPath2)" fill="none" width="140" rx="20" ry="20" height="40"/>
      <text x="-117.5518" xml:space="preserve" y="24.7139" clip-path="url(#clipPath2)" font-family="sans-serif" stroke="none">Начало</text>
    </g>
    <g fill="url(#linearGradient3)" text-rendering="geometricPrecision" shape-rendering="geometricPrecision" transform="matrix(1,0,0,1,182,15)" stroke="url(#linearGradient3)">
      <path d="M-167 350 L-27 350 L-27 380 L-37 390 L-157 390 L-167 380 Z" stroke="none" clip-path="url(#clipPath2)"/>
    </g>
    <g text-rendering="geometricPrecision" stroke-miterlimit="1.45" shape-rendering="geometricPrecision" transform="matrix(1,0,0,1,182,15)" stroke-linecap="butt">
      <path fill="none" d="M-167 350 L-27 350 L-27 380 L-37 390 L-157 390 L-167 380 Z" clip-path="url(#clipPath2)"/>
      <text x="-131.8369" xml:space="preserve" y="374.7139" clip-path="url(#clipPath2)" font-family="sans-serif" stroke="none">Конец цикла</text>
    </g>
    <g fill="url(#linearGradient4)" text-rendering="geometricPrecision" shape-rendering="geometricPrecision" transform="matrix(1,0,0,1,182,15)" stroke="url(#linearGradient4)">
      <path d="M-157 140 L-37 140 L-27 150 L-27 180 L-167 180 L-167 150 Z" stroke="none" clip-path="url(#clipPath2)"/>
    </g>
    <g text-rendering="geometricPrecision" stroke-miterlimit="1.45" shape-rendering="geometricPrecision" transform="matrix(1,0,0,1,182,15)" stroke-linecap="butt">
      <path fill="none" d="M-157 140 L-37 140 L-27 150 L-27 180 L-167 180 L-167 150 Z" clip-path="url(#clipPath2)"/>
      <text x="-137.3066" xml:space="preserve" y="157.3633" clip-path="url(#clipPath2)" font-family="sans-serif" stroke="none">От 0 до конца </text>
      <text x="-144.625" xml:space="preserve" y="172.0645" clip-path="url(#clipPath2)" font-family="sans-serif" stroke="none">массива роторов</text>
    </g>
    <g fill="url(#linearGradient5)" text-rendering="geometricPrecision" shape-rendering="geometricPrecision" transform="matrix(1,0,0,1,182,15)" stroke="url(#linearGradient5)">
      <rect x="10" y="560" clip-path="url(#clipPath2)" width="140" rx="20" ry="20" height="40" stroke="none"/>
    </g>
    <g text-rendering="geometricPrecision" stroke-miterlimit="1.45" shape-rendering="geometricPrecision" transform="matrix(1,0,0,1,182,15)" stroke-linecap="butt">
      <rect x="10" y="560" clip-path="url(#clipPath2)" fill="none" width="140" rx="20" ry="20" height="40"/>
      <text x="63.0811" xml:space="preserve" y="584.7139" clip-path="url(#clipPath2)" font-family="sans-serif" stroke="none">Конец</text>
    </g>
    <g fill="url(#linearGradient6)" text-rendering="geometricPrecision" shape-rendering="geometricPrecision" transform="matrix(1,0,0,1,182,15)" stroke="url(#linearGradient6)">
      <path d="M-157 210 L-37 210 L-27 220 L-27 250 L-167 250 L-167 220 Z" stroke="none" clip-path="url(#clipPath2)"/>
    </g>
    <g text-rendering="geometricPrecision" stroke-miterlimit="1.45" shape-rendering="geometricPrecision" transform="matrix(1,0,0,1,182,15)" stroke-linecap="butt">
      <path fill="none" d="M-157 210 L-37 210 L-27 220 L-27 250 L-167 250 L-167 220 Z" clip-path="url(#clipPath2)"/>
      <text x="-137.3066" xml:space="preserve" y="227.3633" clip-path="url(#clipPath2)" font-family="sans-serif" stroke="none">От 0 до конца </text>
      <text x="-141.4375" xml:space="preserve" y="242.0645" clip-path="url(#clipPath2)" font-family="sans-serif" stroke="none">массива ротора</text>
    </g>
    <g fill="url(#linearGradient7)" text-rendering="geometricPrecision" shape-rendering="geometricPrecision" transform="matrix(1,0,0,1,182,15)" stroke="url(#linearGradient7)">
      <path d="M-167 280 L-27 280 L-27 320 L-167 320 Z" stroke="none" clip-path="url(#clipPath2)"/>
    </g>
    <g text-rendering="geometricPrecision" stroke-miterlimit="1.45" shape-rendering="geometricPrecision" transform="matrix(1,0,0,1,182,15)" stroke-linecap="butt">
      <path fill="none" d="M-167 280 L-27 280 L-27 320 L-167 320 Z" clip-path="url(#clipPath2)"/>
      <text x="-113.3008" xml:space="preserve" y="297.3633" clip-path="url(#clipPath2)" font-family="sans-serif" stroke="none">код = </text>
      <text x="-125.8926" xml:space="preserve" y="312.0645" clip-path="url(#clipPath2)" font-family="sans-serif" stroke="none">ротор[код]</text>
    </g>
    <g fill="url(#linearGradient8)" text-rendering="geometricPrecision" shape-rendering="geometricPrecision" transform="matrix(1,0,0,1,182,15)" stroke="url(#linearGradient8)">
      <path d="M-167 420 L-27 420 L-27 450 L-37 460 L-157 460 L-167 450 Z" stroke="none" clip-path="url(#clipPath2)"/>
    </g>
    <g text-rendering="geometricPrecision" stroke-miterlimit="1.45" shape-rendering="geometricPrecision" transform="matrix(1,0,0,1,182,15)" stroke-linecap="butt">
      <path fill="none" d="M-167 420 L-27 420 L-27 450 L-37 460 L-157 460 L-167 450 Z" clip-path="url(#clipPath2)"/>
      <text x="-131.8369" xml:space="preserve" y="444.7139" clip-path="url(#clipPath2)" font-family="sans-serif" stroke="none">Конец цикла</text>
    </g>
    <g fill="url(#linearGradient9)" text-rendering="geometricPrecision" shape-rendering="geometricPrecision" transform="matrix(1,0,0,1,182,15)" stroke="url(#linearGradient9)">
      <path d="M-167 490 L-27 490 L-27 530 L-167 530 Z" stroke="none" clip-path="url(#clipPath2)"/>
    </g>
    <g text-rendering="geometricPrecision" stroke-miterlimit="1.45" shape-rendering="geometricPrecision" transform="matrix(1,0,0,1,182,15)" stroke-linecap="butt">
      <path fill="none" d="M-167 490 L-27 490 L-27 530 L-167 530 Z" clip-path="url(#clipPath2)"/>
      <text x="-113.3008" xml:space="preserve" y="507.3633" clip-path="url(#clipPath2)" font-family="sans-serif" stroke="none">код = </text>
      <text x="-140.292" xml:space="preserve" y="522.0645" clip-path="url(#clipPath2)" font-family="sans-serif" stroke="none">рефлектор[код]</text>
    </g>
    <g fill="url(#linearGradient10)" text-rendering="geometricPrecision" shape-rendering="geometricPrecision" transform="matrix(1,0,0,1,182,15)" stroke="url(#linearGradient10)">
      <path d="M10 280 L150 280 L150 310 L140 320 L20 320 L10 310 Z" stroke="none" clip-path="url(#clipPath2)"/>
    </g>
    <g text-rendering="geometricPrecision" stroke-miterlimit="1.45" shape-rendering="geometricPrecision" transform="matrix(1,0,0,1,182,15)" stroke-linecap="butt">
      <path fill="none" d="M10 280 L150 280 L150 310 L140 320 L20 320 L10 310 Z" clip-path="url(#clipPath2)"/>
      <text x="45.1631" xml:space="preserve" y="304.7139" clip-path="url(#clipPath2)" font-family="sans-serif" stroke="none">Конец цикла</text>
    </g>
    <g fill="url(#linearGradient11)" text-rendering="geometricPrecision" shape-rendering="geometricPrecision" transform="matrix(1,0,0,1,182,15)" stroke="url(#linearGradient11)">
      <path d="M20 70 L140 70 L150 80 L150 110 L10 110 L10 80 Z" stroke="none" clip-path="url(#clipPath2)"/>
    </g>
    <g text-rendering="geometricPrecision" stroke-miterlimit="1.45" shape-rendering="geometricPrecision" transform="matrix(1,0,0,1,182,15)" stroke-linecap="butt">
      <path fill="none" d="M20 70 L140 70 L150 80 L150 110 L10 110 L10 80 Z" clip-path="url(#clipPath2)"/>
      <text x="28.1973" xml:space="preserve" y="87.3633" clip-path="url(#clipPath2)" font-family="sans-serif" stroke="none">От конца массива </text>
      <text x="43.8711" xml:space="preserve" y="102.0645" clip-path="url(#clipPath2)" font-family="sans-serif" stroke="none">роторов до 0</text>
    </g>
    <g fill="url(#linearGradient12)" text-rendering="geometricPrecision" shape-rendering="geometricPrecision" transform="matrix(1,0,0,1,182,15)" stroke="url(#linearGradient12)">
      <path d="M20 140 L140 140 L150 150 L150 180 L10 180 L10 150 Z" stroke="none" clip-path="url(#clipPath2)"/>
    </g>
    <g text-rendering="geometricPrecision" stroke-miterlimit="1.45" shape-rendering="geometricPrecision" transform="matrix(1,0,0,1,182,15)" stroke-linecap="butt">
      <path fill="none" d="M20 140 L140 140 L150 150 L150 180 L10 180 L10 150 Z" clip-path="url(#clipPath2)"/>
      <text x="28.1973" xml:space="preserve" y="157.3633" clip-path="url(#clipPath2)" font-family="sans-serif" stroke="none">От конца массива </text>
      <text x="47.0586" xml:space="preserve" y="172.0645" clip-path="url(#clipPath2)" font-family="sans-serif" stroke="none">ротора до 0</text>
    </g>
    <g fill="url(#linearGradient13)" text-rendering="geometricPrecision" shape-rendering="geometricPrecision" transform="matrix(1,0,0,1,182,15)" stroke="url(#linearGradient13)">
      <path d="M10 210 L150 210 L150 250 L10 250 Z" stroke="none" clip-path="url(#clipPath2)"/>
    </g>
    <g text-rendering="geometricPrecision" stroke-miterlimit="1.45" shape-rendering="geometricPrecision" transform="matrix(1,0,0,1,182,15)" stroke-linecap="butt">
      <path fill="none" d="M10 210 L150 210 L150 250 L10 250 Z" clip-path="url(#clipPath2)"/>
      <text x="63.6992" xml:space="preserve" y="227.3633" clip-path="url(#clipPath2)" font-family="sans-serif" stroke="none">код = </text>
      <text x="51.1074" xml:space="preserve" y="242.0645" clip-path="url(#clipPath2)" font-family="sans-serif" stroke="none">ротор[код]</text>
    </g>
    <g fill="url(#linearGradient14)" text-rendering="geometricPrecision" shape-rendering="geometricPrecision" transform="matrix(1,0,0,1,182,15)" stroke="url(#linearGradient14)">
      <path d="M10 350 L150 350 L150 380 L140 390 L20 390 L10 380 Z" stroke="none" clip-path="url(#clipPath2)"/>
    </g>
    <g text-rendering="geometricPrecision" stroke-miterlimit="1.45" shape-rendering="geometricPrecision" transform="matrix(1,0,0,1,182,15)" stroke-linecap="butt">
      <path fill="none" d="M10 350 L150 350 L150 380 L140 390 L20 390 L10 380 Z" clip-path="url(#clipPath2)"/>
      <text x="45.1631" xml:space="preserve" y="374.7139" clip-path="url(#clipPath2)" font-family="sans-serif" stroke="none">Конец цикла</text>
    </g>
    <g fill="url(#linearGradient15)" text-rendering="geometricPrecision" shape-rendering="geometricPrecision" transform="matrix(1,0,0,1,182,15)" stroke="url(#linearGradient15)">
      <path d="M10 420 L150 420 L150 460 L10 460 Z" stroke="none" clip-path="url(#clipPath2)"/>
    </g>
    <g text-rendering="geometricPrecision" stroke-miterlimit="1.45" shape-rendering="geometricPrecision" transform="matrix(1,0,0,1,182,15)" stroke-linecap="butt">
      <path fill="none" d="M10 420 L150 420 L150 460 L10 460 Z" clip-path="url(#clipPath2)"/>
      <text x="63.6992" xml:space="preserve" y="437.3633" clip-path="url(#clipPath2)" font-family="sans-serif" stroke="none">код = </text>
      <text x="34.4844" xml:space="preserve" y="452.0645" clip-path="url(#clipPath2)" font-family="sans-serif" stroke="none">коммутатор[код]</text>
    </g>
    <g fill="url(#linearGradient16)" text-rendering="geometricPrecision" shape-rendering="geometricPrecision" transform="matrix(1,0,0,1,182,15)" stroke="url(#linearGradient16)">
      <path d="M10 490 L150 490 L150 530 L10 530 Z" stroke="none" clip-path="url(#clipPath2)"/>
    </g>
    <g text-rendering="geometricPrecision" stroke-miterlimit="1.45" shape-rendering="geometricPrecision" transform="matrix(1,0,0,1,182,15)" stroke-linecap="butt">
      <path fill="none" d="M10 490 L150 490 L150 530 L10 530 Z" clip-path="url(#clipPath2)"/>
      <text x="31.0684" xml:space="preserve" y="507.3633" clip-path="url(#clipPath2)" font-family="sans-serif" stroke="none">цикличный сдвиг </text>
      <text x="57.3799" xml:space="preserve" y="522.0645" clip-path="url(#clipPath2)" font-family="sans-serif" stroke="none">роторов</text>
    </g>
    <g fill="white" text-rendering="geometricPrecision" shape-rendering="geometricPrecision" transform="matrix(1,0,0,1,182,15)" stroke="white">
      <ellipse rx="22.5195" ry="20" clip-path="url(#clipPath2)" cx="-97" cy="580" stroke="none"/>
    </g>
    <g text-rendering="geometricPrecision" stroke-miterlimit="1.45" shape-rendering="geometricPrecision" transform="matrix(1,0,0,1,182,15)" stroke-linecap="butt">
      <ellipse rx="22.5195" fill="none" ry="20" clip-path="url(#clipPath2)" cx="-97" cy="580"/>
      <text x="-101.002" xml:space="preserve" y="584.7139" clip-path="url(#clipPath2)" font-family="sans-serif" stroke="none">А</text>
    </g>
    <g fill="white" text-rendering="geometricPrecision" shape-rendering="geometricPrecision" transform="matrix(1,0,0,1,182,15)" stroke="white">
      <ellipse rx="22.5195" ry="20" clip-path="url(#clipPath2)" cx="80" cy="20" stroke="none"/>
    </g>
    <g text-rendering="geometricPrecision" stroke-miterlimit="1.45" shape-rendering="geometricPrecision" transform="matrix(1,0,0,1,182,15)" stroke-linecap="butt">
      <ellipse rx="22.5195" fill="none" ry="20" clip-path="url(#clipPath2)" cx="80" cy="20"/>
      <text x="75.998" xml:space="preserve" y="24.7139" clip-path="url(#clipPath2)" font-family="sans-serif" stroke="none">А</text>
      <path fill="none" d="M-97 40 L-97 61.9707" clip-path="url(#clipPath2)"/>
      <path d="M-97 69.9707 L-92 57.9707 L-97 60.9707 L-102 57.9707 Z" clip-path="url(#clipPath2)" stroke="none"/>
      <path fill="none" d="M-97 110 L-97 131.9707" clip-path="url(#clipPath2)"/>
      <path d="M-97 139.9707 L-92 127.9707 L-97 130.9707 L-102 127.9707 Z" clip-path="url(#clipPath2)" stroke="none"/>
      <path fill="none" d="M-97 180 L-97 201.9707" clip-path="url(#clipPath2)"/>
      <path d="M-97 209.9707 L-92 197.9707 L-97 200.9707 L-102 197.9707 Z" clip-path="url(#clipPath2)" stroke="none"/>
      <path fill="none" d="M-97 250 L-97 271.9707" clip-path="url(#clipPath2)"/>
      <path d="M-97 279.9707 L-92 267.9707 L-97 270.9707 L-102 267.9707 Z" clip-path="url(#clipPath2)" stroke="none"/>
      <path fill="none" d="M-97 320 L-97 341.9707" clip-path="url(#clipPath2)"/>
      <path d="M-97 349.9707 L-92 337.9707 L-97 340.9707 L-102 337.9707 Z" clip-path="url(#clipPath2)" stroke="none"/>
      <path fill="none" d="M-97 390 L-97 411.9707" clip-path="url(#clipPath2)"/>
      <path d="M-97 419.9707 L-92 407.9707 L-97 410.9707 L-102 407.9707 Z" clip-path="url(#clipPath2)" stroke="none"/>
      <path fill="none" d="M-97 460 L-97 481.9707" clip-path="url(#clipPath2)"/>
      <path d="M-97 489.9707 L-92 477.9707 L-97 480.9707 L-102 477.9707 Z" clip-path="url(#clipPath2)" stroke="none"/>
      <path fill="none" d="M80 110 L80 131.9707" clip-path="url(#clipPath2)"/>
      <path d="M80 139.9707 L85 127.9707 L80 130.9707 L75 127.9707 Z" clip-path="url(#clipPath2)" stroke="none"/>
      <path fill="none" d="M80 180 L80 201.9707" clip-path="url(#clipPath2)"/>
      <path d="M80 209.9707 L85 197.9707 L80 200.9707 L75 197.9707 Z" clip-path="url(#clipPath2)" stroke="none"/>
      <path fill="none" d="M80 250 L80 271.9707" clip-path="url(#clipPath2)"/>
      <path d="M80 279.9707 L85 267.9707 L80 270.9707 L75 267.9707 Z" clip-path="url(#clipPath2)" stroke="none"/>
      <path fill="none" d="M80 320 L80 341.9707" clip-path="url(#clipPath2)"/>
      <path d="M80 349.9707 L85 337.9707 L80 340.9707 L75 337.9707 Z" clip-path="url(#clipPath2)" stroke="none"/>
      <path fill="none" d="M80 390 L80 411.9707" clip-path="url(#clipPath2)"/>
      <path d="M80 419.9707 L85 407.9707 L80 410.9707 L75 407.9707 Z" clip-path="url(#clipPath2)" stroke="none"/>
      <path fill="none" d="M80 460 L80 481.9707" clip-path="url(#clipPath2)"/>
      <path d="M80 489.9707 L85 477.9707 L80 480.9707 L75 477.9707 Z" clip-path="url(#clipPath2)" stroke="none"/>
      <path fill="none" d="M80 530 L80 551.9707" clip-path="url(#clipPath2)"/>
      <path d="M80 559.9707 L85 547.9707 L80 550.9707 L75 547.9707 Z" clip-path="url(#clipPath2)" stroke="none"/>
      <path fill="none" d="M-97 530 L-97 552" clip-path="url(#clipPath2)"/>
      <path d="M-97 560 L-92 548 L-97 551 L-102 548 Z" clip-path="url(#clipPath2)" stroke="none"/>
      <path fill="none" d="M80 40 L80 61.9707" clip-path="url(#clipPath2)"/>
      <path d="M80 69.9707 L85 57.9707 L80 60.9707 L75 57.9707 Z" clip-path="url(#clipPath2)" stroke="none"/>
    </g>
  </g>
</svg>
